<defs>
<font horiz-adv-x="469" ><font-face
    font-family="bpreplay"
    units-per-em="1000"
    panose-1="2 0 5 3 0 0 0 2 0 4"
    ascent="893"
    descent="-240"
    alphabetic="0" />
<missing-glyph horiz-adv-x="270" />
<glyph unicode=" " glyph-name="space" horiz-adv-x="312" />
<glyph unicode="!" glyph-name="exclam" horiz-adv-x="228" d="M85 725V181Q85 144 48 144Q12 144 12 181V725Q12 768 49 768Q85 768 85 725ZM0 29T0 50T14 85T50 100T85 86T100 50T86 15T50 0T15 14Z" />
<glyph unicode="&quot;" glyph-name="quotedbl" horiz-adv-x="339" d="M0 579V726Q0 769 37 769Q73 769 73 726V579Q73 540 36 540Q0 540 0 579ZM139 579V726Q139 769 177 769T215 726V579Q215 540 176 540Q139 540 139 579Z" />
<glyph unicode="#" glyph-name="numbersign" horiz-adv-x="661" d="M74 518H156L184 730Q188 767 216 767Q230 767 240 757T251 734V730L221 518H361L391 730Q396 768 423 768Q437 768 446 759T456 735V730L428 518H498Q514 518 525 510T537 486Q537 453 493 453H420L395
291H467Q503 291 503 257Q503 241 491 232T463 223H387L360 49Q353 0 317 0Q293 0 293 27Q293 28 293 31T294 37L321 223H180L155 49Q148 0 112 0Q87 0 87 27Q87 28 87 32T88 37L115 223H46Q0 223 0 257Q0 274 13 282T43 291H123L148 453H74Q36 453 36 487Q36 518
74 518ZM353 453H213L188 291H329L353 453Z" />
<glyph unicode="$" glyph-name="dollar" horiz-adv-x="563" d="M189 770V808Q189 840 210 840T231 810V770Q277 769 335 744T393 681Q393 646 359 646Q348 646 304 670T231 697V445Q322 415 380 358T439 217Q439 130 377 65T231 0Q231 -24 232 -49Q232 -76 211
-76Q188 -76 187 -46L189 0Q136 4 78 25T20 78Q20 96 30 107T56 119T117 97T189 73V372Q108 393 54 443T0 568Q0 646 56 702T189 770ZM231 356V69Q284 79 320 119T356 212Q356 314 231 356ZM189 461V697Q141 688 112 656T82 581Q82 537 113 506T189 461Z" />
<glyph unicode="%" glyph-name="percent" horiz-adv-x="826" d="M539 369Q613 369 657 314T702 181Q702 103 659 52T539 0Q462 0 416 54T370 188Q370 266 416 317T539 369ZM539 56Q587 56 613 92T639 180T612 271T539 312Q492 312 465 274T438 185Q438 132 464
94T539 56ZM167 398Q92 398 46 454T0 588T45 716T167 767Q242 767 287 713T333 582Q333 504 288 451T167 398ZM167 455Q215 455 242 492T269 581Q269 635 241 672T167 710Q120 710 94 673T68 584T94 494T167 455ZM183 35L455 733Q467 763 494 763Q507 763 515 754T524
731T518 705L239 0Q234 -15 207 -15Q196 -15 188 -6T180 19Q180 28 183 35Z" />
<glyph unicode="&amp;" glyph-name="ampersand" horiz-adv-x="754" d="M246 497Q327 559 327 623Q327 661 306 680T254 700T202 681T179 626Q179 558 246 497ZM564 10L472 108Q386 -21 250 -21Q135 -21 68 43T0 208Q0 348 176 461Q103 537 103 612Q103 684 149
725T256 767Q315 767 356 728T398 614Q398 531 292 445L480 231L540 331Q562 370 590 370Q605 370 614 361T624 338Q624 315 609 291L528 169L621 67Q630 56 630 43Q630 26 619 13T592 0Q575 0 564 10ZM432 165L217 404Q73 309 73 207Q73 141 127 96T251 50Q362
50 432 165Z" />
<glyph unicode="&apos;" glyph-name="quotesingle" horiz-adv-x="273" d="M144 707L79 560Q67 533 40 533Q25 533 13 543T0 567Q0 575 2 581L63 732Q78 769 108 769Q124 769 136 757T149 728Q149 719 144 707Z" />
<glyph unicode="(" glyph-name="parenleft" horiz-adv-x="305" d="M142 745Q156 756 170 756T193 747T203 724Q203 710 191 696Q70 553 70 347Q70 244 100 147T194 -17Q203 -30 203 -44T194 -67T171 -76Q154 -76 140 -62Q69 9 35 121T0 352Q0 590 142 745Z" />
<glyph unicode=")" glyph-name="parenright" horiz-adv-x="305" d="M60 745Q202 590 202 352Q202 234 168 122T62 -62Q48 -76 31 -76Q17 -76 8 -67T-1 -44T8 -17Q72 49 102 146T132 347Q132 553 11 696Q-1 710 -1 724Q-1 737 8 746T32 756T60 745Z" />
<glyph unicode="*" glyph-name="asterisk" horiz-adv-x="625" d="M148 619Q135 631 135 645Q135 656 144 665T165 674Q168 674 176 672L276 607L270 724Q276 752 300 752Q323 752 330 727L323 607L418 668Q426 673 436 673Q447 673 456 665T465 644Q465 629 450
617L346 565L448 515Q465 506 465 488Q465 476 457 468T435 459Q428 459 420 462L323 520L330 413Q330 397 321 389T300 380Q289 380 280 388T270 410L275 520L178 460Q170 458 165 458Q153 458 144 466T135 487Q135 500 146 511L249 565L148 619Z" />
<glyph unicode="+" glyph-name="plus" horiz-adv-x="625" d="M70 315H252V498Q252 518 263 529T293 541Q310 541 322 529T334 498V315H516Q539 315 552 304T565 275Q565 231 516 231H334V42Q334 25 323 13T294 0Q275 0 264 11T252 42V231H70Q25 231 25 274Q25
315 70 315Z" />
<glyph unicode="," glyph-name="comma" horiz-adv-x="272" d="M146 64L70 -112Q60 -137 37 -137Q23 -137 12 -126T0 -100Q0 -94 3 -87L70 76Q84 108 111 108Q126 108 137 98T148 74Q148 70 146 64Z" />
<glyph unicode="-" glyph-name="hyphen" horiz-adv-x="402" d="M47 315H253Q296 315 296 276Q296 239 253 239H47Q3 239 3 276Q3 292 15 303T47 315Z" />
<glyph unicode="." glyph-name="period" horiz-adv-x="229" d="M0 29T0 50T14 85T50 100T85 86T100 50T86 15T50 0T15 14Z" />
<glyph unicode="/" glyph-name="slash" horiz-adv-x="625" d="M133 35L405 733Q417 763 444 763Q457 763 465 754T474 731T468 705L189 0Q184 -15 157 -15Q146 -15 138 -6T130 19Q130 28 133 35Z" />
<glyph unicode="0" glyph-name="zero" horiz-adv-x="593" d="M247 767H251Q316 767 365 730T441 633T481 508T494 377Q494 313 481 249T440 124T363 26T249 -12Q182 -12 132 24T54 119T14 243T1 375Q1 440 14 505T55 631T132 729T247 767ZM206 65T249 65T325 97T376
178T402 276T411 371Q411 423 403 475T376 577T326 657T250 688Q204 688 170 656T118 572T92 471T84 373Q84 324 93 273T121 174T173 96Z" />
<glyph unicode="1" glyph-name="one" horiz-adv-x="370" d="M144 43V655L46 627Q36 625 33 625Q18 625 8 634T-2 658Q-2 690 35 700Q184 742 188 742Q212 742 220 722Q225 712 225 671V43Q225 24 214 12T185 0Q166 0 155 12T144 43Z" />
<glyph unicode="2" glyph-name="two" horiz-adv-x="526" d="M-2 558Q-2 650 63 707T213 764Q295 764 358 711T421 576Q421 480 350 386L114 76H395Q432 76 432 39Q432 0 394 0H63Q8 0 8 36Q8 54 23 73L295 443Q339 503 339 569Q339 622 300 654T209 687Q156 687
118 652T80 553Q80 536 70 521T40 505T10 521T-2 558Z" />
<glyph unicode="3" glyph-name="three" horiz-adv-x="523" d="M189 767Q278 767 332 710T387 570Q387 475 304 404Q360 369 388 317T417 208Q417 119 355 54T191 -12Q134 -12 87 13T13 78Q-12 114 -12 149Q-12 168 -2 178T22 189Q48 189 59 163Q100 68 190 68Q250
68 292 105T335 210Q335 263 305 305T218 356Q206 358 160 358Q114 359 114 395T159 431Q206 431 216 433Q258 441 281 481T305 568Q305 624 273 658T184 692Q141 692 110 663T79 592Q79 542 41 542Q-2 542 -2 595Q-2 661 53 714T189 767Z" />
<glyph unicode="4" glyph-name="four" horiz-adv-x="603" d="M336 47V189H51Q26 189 12 202T-2 236Q-2 257 11 274L272 695Q301 742 349 742Q377 742 395 723T413 670V265H461Q498 265 498 225Q498 190 465 190H413V47Q413 0 375 0Q336 0 336 47ZM336 658L92 265H336V658Z"
/>
<glyph unicode="5" glyph-name="five" horiz-adv-x="545" d="M170 740H384Q401 740 411 728T421 697Q421 659 384 659H178L145 466Q178 474 221 474Q328 474 387 405T447 240Q447 139 382 64T200 -12Q117 -12 55 29T-7 114Q-7 131 2 140T25 150Q44 150 56 133Q80
102 122 83T205 63Q275 63 321 114T367 231Q367 299 324 349T202 400Q174 400 146 392T103 383Q62 383 62 420Q62 429 113 700Q120 740 170 740Z" />
<glyph unicode="6" glyph-name="six" horiz-adv-x="542" d="M319 679Q257 621 201 549T119 425Q164 478 256 478Q339 478 398 411T457 242Q457 138 393 63T227 -12Q121 -12 61 66T1 255Q1 386 72 507T254 728Q271 743 288 743Q306 743 318 733T330 703Q330 690
319 679ZM231 62Q300 67 340 119T381 239Q381 306 341 355T225 404Q154 404 117 356T79 240Q79 169 120 116T231 62Z" />
<glyph unicode="7" glyph-name="seven" horiz-adv-x="542" d="M44 741H398Q417 741 430 728T444 695Q444 683 438 668L173 41Q155 0 125 0Q90 0 90 39Q90 53 95 63L349 660H44Q-2 660 -2 701Q-2 741 44 741Z" />
<glyph unicode="8" glyph-name="eight" horiz-adv-x="539" d="M123 408Q26 468 26 578Q26 656 83 709T222 762Q304 762 358 711T413 578Q413 481 316 414Q375 386 409 332T444 214Q444 121 380 55T223 -12Q123 -12 61 52T-2 217Q-2 278 33 330T123 408ZM223 370Q162
370 122 326T82 220Q82 155 121 111T223 67Q284 67 322 111T360 218Q360 282 321 326T223 370ZM223 445Q272 445 300 483T329 573Q329 626 297 657T220 688T141 657T106 573T138 483T223 445Z" />
<glyph unicode="9" glyph-name="nine" horiz-adv-x="549" d="M354 307Q305 263 226 263Q121 263 59 339T-3 517T59 692T233 766Q339 766 402 689T466 492Q466 417 445 341T362 169T200 -7Q187 -18 169 -18Q154 -18 144 -9T134 14Q134 36 153 53Q221 112 279 186T354
307ZM230 689Q156 689 116 635T76 512Q76 432 121 385T231 338Q300 338 345 382T390 510Q390 581 349 635T230 689Z" />
<glyph unicode=":" glyph-name="colon" horiz-adv-x="227" d="M0 29T0 50T14 85T50 100T85 86T100 50T86 15T50 0T15 14ZM0 379T0 400T14 435T50 450T85 436T100 400T86 365T50 350T15 364Z" />
<glyph unicode=";" glyph-name="semicolon" horiz-adv-x="272" d="M50 379T50 400T64 435T100 450T135 436T150 400T136 365T100 350T65 364ZM146 64Q148 70 148 74Q148 88 137 98T111 108Q84 108 70 76L3 -87Q0 -94 0 -100Q0 -115 11 -126T37 -137Q60 -137 70
-112L146 64Z" />
<glyph unicode="&lt;" glyph-name="less" horiz-adv-x="650" d="M541 471L129 273L533 77Q571 59 571 34Q571 19 562 10T537 1Q522 1 498 12L54 233Q19 250 19 279Q19 307 54 324L509 536Q529 544 543 544Q556 544 565 535T574 512Q574 487 541 471Z" />
<glyph unicode="=" glyph-name="equal" horiz-adv-x="625" d="M62 428H532Q569 428 569 390Q569 355 532 355H62Q26 355 26 393Q26 428 62 428ZM532 148H62Q26 148 26 184Q26 221 62 221H532Q569 221 569 185Q569 148 532 148Z" />
<glyph unicode="&gt;" glyph-name="greater" horiz-adv-x="650" d="M464 273L52 471Q19 487 19 512Q19 526 28 535T50 544Q64 544 84 536L539 324Q574 307 574 279Q574 250 539 233L95 12Q71 1 56 1Q40 1 31 10T22 34Q22 59 60 77L464 273Z" />
<glyph unicode="?" glyph-name="question" horiz-adv-x="497" d="M100 29T100 50T114 85T150 100T185 86T200 50T186 15T150 0T115 14ZM302 563Q302 614 272 641T199 668Q161 668 133 642T100 577Q98 557 88 546T63 534Q48 534 38 546T27 580Q27 655 81 699T204
743Q277 743 328 696T379 564Q379 517 360 467T304 367T238 284T167 208Q152 195 138 195Q122 195 112 205T102 232Q102 247 124 269Q178 324 210 361T272 456T302 563Z" />
<glyph unicode="@" glyph-name="at" horiz-adv-x="878" d="M470 536Q475 579 503 579Q537 579 537 531V324Q537 244 579 244Q617 244 640 293T663 437Q663 559 587 632T393 705Q250 705 169 610T87 363Q87 224 171 139T381 53Q547 53 624 139Q643 159 661 159Q673
159 681 152T689 133Q689 112 676 98Q624 40 542 14T376 -13Q224 -13 121 89T17 361Q17 541 118 656T394 771Q544 771 637 684T730 442Q730 328 689 253T582 177Q528 177 482 234Q431 178 366 178Q285 178 242 235T198 372Q198 456 244 518T373 580Q426 580 470
536ZM464 298V472Q427 512 385 512Q332 512 301 470T269 372Q269 321 296 284T374 247Q433 247 464 298Z" />
<glyph unicode="A" glyph-name="A" horiz-adv-x="678" d="M289 638L139 228H435L289 638ZM514 24L462 152H118L77 38Q63 0 32 0Q0 0 0 35Q0 43 4 55L230 695Q246 740 288 740T346 695L580 55Q584 46 584 34Q584 0 550 0Q523 0 514 24Z" />
<glyph unicode="B" glyph-name="B" horiz-adv-x="606" d="M0 49V692Q0 740 41 740H234Q268 740 303 730T371 701T426 645T447 564Q447 510 415 466T334 406Q403 395 454 338T505 208Q505 118 443 59T293 0H58Q25 0 14 8Q0 17 0 49ZM74 362V73H263Q331 73 376 108T422
207Q422 279 365 320T228 362H74ZM74 430H204Q269 430 319 460T369 549Q369 602 327 634T228 667H74V430Z" />
<glyph unicode="C" glyph-name="C" horiz-adv-x="708" d="M508 135Q519 146 533 146Q569 146 569 109Q569 86 554 72Q459 -11 340 -11Q258 -11 192 21T84 109T21 231T-1 373Q-1 448 21 517T86 643T195 733T346 767Q469 767 557 685Q576 669 576 649Q576 631 566
620T540 609Q521 609 509 621Q444 686 343 686Q259 686 198 641T108 527T80 380Q80 254 150 160T344 66Q439 66 508 135Z" />
<glyph unicode="D" glyph-name="D" horiz-adv-x="659" d="M0 41V692Q0 740 58 740H256Q350 740 419 684T521 545T554 367Q554 220 466 110T236 0H42Q17 0 9 8T0 41ZM245 667H74V73H231Q344 73 409 160T475 367Q475 446 450 512T372 623T245 667Z" />
<glyph unicode="E" glyph-name="E" horiz-adv-x="492" d="M0 45V695Q0 740 41 740H345Q382 740 382 703Q382 667 345 667H73V421H297Q334 421 334 383Q334 348 297 348H73V73H353Q396 73 396 36Q396 0 353 0H41Q15 0 8 8T0 45Z" />
<glyph unicode="F" glyph-name="F" horiz-adv-x="453" d="M0 30V692Q0 740 41 740H336Q373 740 373 703Q373 667 336 667H74V403H272Q309 403 309 365Q309 329 272 329H74V30Q74 0 36 0Q0 0 0 30Z" />
<glyph unicode="G" glyph-name="G" horiz-adv-x="718" d="M546 350H341Q297 350 297 386Q297 423 344 423H561Q600 423 612 400T625 334Q625 188 543 89T326 -11Q247 -11 183 23T80 115T21 240T0 382Q0 462 21 532T84 656T191 741T340 772Q397 772 458 749T563
680Q580 663 580 647T570 618T541 605Q524 605 506 621Q428 692 336 692Q213 692 148 607T82 383Q82 304 108 234T193 115T330 66Q432 66 491 143T550 335Q550 349 546 350Z" />
<glyph unicode="H" glyph-name="H" horiz-adv-x="677" d="M0 36V705Q0 742 36 742Q73 742 73 705V413H486V705Q486 742 522 742Q560 742 560 705V36Q560 0 522 0Q486 0 486 36V339H73V36Q73 0 37 0Q0 0 0 36Z" />
<glyph unicode="I" glyph-name="I" horiz-adv-x="191" d="M0 37V705Q0 742 36 742Q73 742 73 705V37Q73 0 36 0Q0 0 0 37Z" />
<glyph unicode="J" glyph-name="J" horiz-adv-x="431" d="M315 705V149Q315 75 269 31T148 -13Q68 -13 12 37Q0 48 0 65Q0 103 34 103Q42 103 76 80T149 57Q192 57 216 81T240 149V705Q240 742 277 742Q315 742 315 705Z" />
<glyph unicode="K" glyph-name="K" horiz-adv-x="593" d="M0 32V711Q0 742 36 742Q74 742 74 711V346L423 731Q431 740 446 740Q462 740 474 728T487 700Q487 686 477 677L262 442L494 65Q506 54 506 36Q506 20 493 10T469 -1Q450 -1 435 16L208 387L74 246V32Q74
0 38 0Q0 0 0 32Z" />
<glyph unicode="L" glyph-name="L" horiz-adv-x="514" d="M0 57V705Q0 742 36 742Q73 742 73 705V73H394Q431 73 431 37Q431 0 394 0H49Q0 0 0 57Z" />
<glyph unicode="M" glyph-name="M" horiz-adv-x="908" d="M234 677L398 132L566 677Q586 742 638 742T700 669L793 45Q793 44 793 41T794 37Q794 21 784 11T757 1Q723 1 717 41L632 648L437 43Q424 0 396 0T355 43L167 649L75 42Q69 1 35 1Q0 1 0 35Q0 43 1 47L100
669Q112 744 164 744Q215 744 234 677Z" />
<glyph unicode="N" glyph-name="N" horiz-adv-x="668" d="M0 38V698Q0 742 36 742Q64 742 88 706L478 132V703Q478 741 514 741Q551 741 551 703V44Q551 0 515 0Q486 0 465 30L73 602V38Q73 0 37 0Q0 0 0 38Z" />
<glyph unicode="O" glyph-name="O" horiz-adv-x="747" d="M318 765Q421 765 496 708T606 564T641 376Q641 276 606 190T496 47T318 -10Q217 -10 143 47T35 192T0 379Q0 453 20 521T79 644T179 732T318 765ZM318 690Q241 690 185 645T103 531T77 381Q77 298 103
227T186 109T320 62Q398 62 455 108T537 222T563 373Q563 502 499 596T318 690Z" />
<glyph unicode="P" glyph-name="P" horiz-adv-x="606" d="M0 37V701Q0 741 41 741H253Q357 741 427 678T498 514Q498 420 428 356T259 291H73V37Q73 0 37 0Q0 0 0 37ZM239 668H73V364H255Q326 364 374 405T422 515Q422 586 372 627T239 668Z" />
<glyph unicode="Q" glyph-name="Q" horiz-adv-x="758" d="M318 765Q421 765 496 708T606 564T641 376Q641 242 578 138Q587 130 646 63Q657 50 657 36T648 12T623 1Q609 1 600 10L531 80Q437 -10 318 -10Q217 -10 143 47T35 192T0 379Q0 453 20 521T79 644T179
732T318 765ZM319 690Q242 690 186 645T104 531T78 381Q78 298 104 227T187 109T321 62Q418 62 487 131L431 183Q417 197 417 212Q417 230 429 242T457 255Q472 255 483 244L531 196Q564 268 564 373Q564 502 500 596T319 690Z" />
<glyph unicode="R" glyph-name="R" horiz-adv-x="615" d="M0 45V701Q0 741 57 741H287Q393 741 454 679T515 533Q515 468 476 415T361 341L501 67Q510 49 510 32Q510 -1 478 -1Q454 -1 444 19L283 325H73V45Q73 0 37 0Q0 0 0 45ZM295 668H73V398H295Q364 398 401
436T439 530T401 626T295 668Z" />
<glyph unicode="S" glyph-name="S" horiz-adv-x="548" d="M355 644Q299 679 214 679Q163 679 125 643T87 554Q87 541 91 529T106 505T126 484T156 464T186 446T222 426T258 407Q292 388 304 382T345 357T386 326T414 294T437 252T444 205Q444 101 376 45T199 -12Q104
-12 27 38Q0 56 0 82Q0 116 34 116Q51 116 69 104Q131 66 202 66T318 99T363 200Q363 221 352 240T316 277T271 307T213 339Q162 366 137 380T75 423T22 482T5 550Q5 645 69 701T230 757Q315 757 400 711Q428 695 428 665Q428 649 418 638T393 626Q383 626 355
644Z" />
<glyph unicode="T" glyph-name="T" horiz-adv-x="531" d="M187 42V668H40Q0 668 0 704Q0 741 40 741H409Q447 741 447 704Q447 668 409 668H261V42Q261 0 225 0Q187 0 187 42Z" />
<glyph unicode="U" glyph-name="U" horiz-adv-x="682" d="M0 285V698Q0 741 41 741Q81 741 81 698V293Q81 70 289 70Q382 70 434 120T486 293V698Q486 741 527 741T568 698V285Q568 205 545 146T481 54T390 5T280 -11Q154 -11 77 59T0 285Z" />
<glyph unicode="V" glyph-name="V" horiz-adv-x="660" d="M77 713L283 124L487 713Q498 742 522 742Q538 742 552 730T566 701Q566 695 563 689L340 62Q317 0 283 0Q252 0 232 53L3 689Q0 698 0 707Q0 743 38 743Q66 743 77 713Z" />
<glyph unicode="W" glyph-name="W" horiz-adv-x="905" d="M77 705L180 100L350 704Q361 742 403 742Q444 742 455 704L620 101L720 703Q726 744 761 744Q777 744 788 733T800 705Q800 699 799 696L683 51Q679 28 661 14T620 0Q572 0 559 46L401 625L244 62Q235
30 217 14T178 -2Q156 -2 138 14T115 57L1 696Q0 699 0 705Q0 722 11 732T38 742Q71 742 77 705Z" />
<glyph unicode="X" glyph-name="X" horiz-adv-x="662" d="M12 62L234 407L38 683Q29 696 29 708Q29 723 39 732T64 742Q84 742 97 724L280 473L441 723Q453 741 472 741Q486 741 497 731T508 705Q508 693 500 682L320 416L554 64Q568 42 568 27Q568 -1 539 -1Q517
-1 501 21L276 348L67 22Q52 -1 29 -1Q0 -1 0 28Q0 44 12 62Z" />
<glyph unicode="Y" glyph-name="Y" horiz-adv-x="568" d="M197 43V348L7 681Q0 694 0 707Q0 742 33 742Q52 742 64 721L239 429L410 719Q424 742 446 742Q479 742 479 710Q479 700 473 689L272 348V43Q272 0 235 0Q197 0 197 43Z" />
<glyph unicode="Z" glyph-name="Z" horiz-adv-x="600" d="M11 81L400 668H52Q14 668 14 704Q14 741 52 741H454Q504 741 504 709Q504 691 484 660L95 73H478Q517 73 517 38Q517 0 478 0H35Q0 0 0 42Q0 64 11 81Z" />
<glyph unicode="[" glyph-name="bracketleft" horiz-adv-x="270" d="M0 -13V709Q0 758 41 758H114Q146 758 146 722Q146 692 115 692H73V2H115Q146 2 146 -28Q146 -62 114 -62H41Q0 -62 0 -13Z" />
<glyph unicode="\" glyph-name="backslash" horiz-adv-x="474" d="M76 717L348 35Q350 29 350 24Q350 11 341 2T317 -7Q288 -7 274 27L3 709Q0 716 0 724Q0 739 11 747T39 756Q53 756 60 747T76 717Z" />
<glyph unicode="]" glyph-name="bracketright" horiz-adv-x="270" d="M73 2V685Q70 685 57 685T31 684Q0 684 0 716Q0 750 31 750H106Q146 750 146 701V-13Q146 -62 106 -62H31Q0 -62 0 -25Q0 2 26 2H73Z" />
<glyph unicode="^" glyph-name="asciicircum" horiz-adv-x="625" d="M343 725L558 331Q566 315 566 301Q566 267 529 267Q504 267 482 307L302 644L112 307Q99 284 91 276T68 267Q52 267 41 275T29 300Q29 314 38 331L261 725Q274 750 302 750T343 725Z" />
<glyph unicode="_" glyph-name="underscore" horiz-adv-x="533" d="M499 -128H0Q-37 -128 -37 -95T0 -62H499Q538 -62 538 -96Q538 -128 499 -128Z" />
<glyph unicode="`" glyph-name="grave" horiz-adv-x="273" d="M147 707L79 553Q64 518 43 518Q24 518 12 528T-1 552Q-1 561 3 569L70 725Q83 753 108 753Q126 753 137 744T149 717Q149 713 147 707Z" />
<glyph unicode="a" glyph-name="a" horiz-adv-x="557" d="M74 539Q147 569 240 569Q336 569 389 518T443 388V29Q443 14 433 3T406 -8T380 2T369 28Q368 47 368 62Q303 -8 197 -8Q118 -8 62 35T5 159Q5 242 68 289T217 336Q318 336 368 286V381Q368 433 328 464T218
496Q181 496 136 484T80 472Q46 472 46 503Q46 527 74 539ZM80 165Q80 114 117 88T210 62Q271 62 319 92T367 171Q367 214 322 240T217 267Q160 267 120 241T80 165Z" />
<glyph unicode="b" glyph-name="b" horiz-adv-x="576" d="M0 30V741Q0 780 37 780T74 741V458Q90 505 139 539T239 573Q348 573 410 484T472 277Q472 202 447 138T368 31T239 -12Q185 -12 140 14T74 87V29Q74 11 63 0T36 -11Q0 -11 0 30ZM244 58Q284 58 314 77T361
129T386 198T395 275Q395 329 381 378T332 464T244 501Q163 501 121 434T78 279Q78 190 120 124T244 58Z" />
<glyph unicode="c" glyph-name="c" horiz-adv-x="520" d="M265 489Q184 489 130 429T76 273Q76 185 132 123T268 60Q330 60 380 94Q385 98 393 98Q404 98 413 89T423 66Q423 48 399 29Q338 -11 266 -11Q153 -11 77 72T0 278Q0 402 77 481T264 560Q335 560 383
538Q417 523 417 502Q417 485 408 475T384 464Q380 464 374 466Q320 489 265 489Z" />
<glyph unicode="d" glyph-name="d" horiz-adv-x="582" d="M395 480V742Q395 781 433 781Q469 781 469 742V19Q469 -14 433 -14Q395 -14 395 20V87Q331 -13 232 -13Q121 -13 61 71T0 273Q0 348 25 414T104 527T232 573Q281 573 327 549T395 480ZM231 54Q297 54
347 115T397 277Q397 378 349 439T235 500Q161 500 119 432T77 272Q77 183 117 119T231 54Z" />
<glyph unicode="e" glyph-name="e" horiz-adv-x="604" d="M242 574Q351 574 412 505T473 324Q473 280 462 262T417 243H79Q79 176 135 119T258 62Q301 62 331 73T394 113Q414 131 437 131Q470 131 470 97Q470 84 463 77Q392 -12 258 -12Q139 -12 70 72T0 280Q0
398 65 486T242 574ZM80 315H399Q399 394 357 447T245 500Q174 500 127 446T80 315Z" />
<glyph unicode="f" glyph-name="f" horiz-adv-x="344" d="M88 36V479H41Q0 479 0 515Q0 554 41 554H88Q88 646 122 694T234 742Q278 742 278 707Q278 674 234 674Q193 674 177 645T161 554Q193 554 225 555Q266 555 266 517Q266 478 223 478H161V36Q161 0 124
0Q88 0 88 36Z" />
<glyph unicode="g" glyph-name="g" horiz-adv-x="585" d="M77 283Q77 178 126 118T242 58T355 116T402 280Q402 383 354 441T239 500Q174 500 126 443T77 283ZM399 479V543Q399 576 435 576Q473 576 473 541V38Q473 -87 403 -156T233 -226Q128 -226 57 -181Q37
-168 37 -144Q37 -128 47 -117T73 -105Q85 -105 111 -120Q167 -151 230 -151Q303 -151 351 -105T399 29V80Q381 34 338 12T244 -11Q130 -11 65 75T0 282Q0 401 65 487T244 573Q290 573 336 545T399 479Z" />
<glyph unicode="h" glyph-name="h" horiz-adv-x="526" d="M0 36V742Q0 781 36 781Q73 781 73 742V486Q122 572 220 572Q297 572 357 518T418 382V36Q418 0 381 0Q345 0 345 36V350Q345 421 306 460T211 500Q155 500 114 460T73 350V36Q73 0 36 0Q0 0 0 36Z" />
<glyph unicode="i" glyph-name="i" horiz-adv-x="230" d="M15 37V531Q15 568 52 568Q91 568 91 531V37Q91 0 53 0T15 37ZM0 714T0 735T14 770T50 785T85 771T100 735T86 700T50 685T15 699Z" />
<glyph unicode="j" glyph-name="j" horiz-adv-x="210" d="M0 714T0 735T14 770T50 785T85 771T100 735T86 700T50 685T15 699ZM88 -52V531Q88 567 51 567Q13 567 13 531V-52Q13 -118 0 -145T-60 -172Q-104 -172 -104 -205Q-104 -240 -60 -240Q24 -240 56 -194T88 -52Z" />
<glyph unicode="k" glyph-name="k" horiz-adv-x="512" d="M-1 36V743Q-1 780 37 780Q74 780 74 743V278L359 547Q370 556 384 556Q400 556 411 547T422 522T401 486L241 336Q262 306 326 216T425 77Q441 50 441 35Q441 17 431 8T407 -2Q382 -2 369 20L183 285L74
186V36Q74 0 36 0Q-1 0 -1 36Z" />
<glyph unicode="l" glyph-name="l" horiz-adv-x="205" d="M0 37V744Q0 782 36 782Q74 782 74 744V37Q74 0 37 0T0 37Z" />
<glyph unicode="m" glyph-name="m" horiz-adv-x="841" d="M0 38V520Q0 564 37 564T74 523V484Q94 524 134 548T219 573Q268 573 309 544T370 468Q394 515 442 544T546 573Q624 573 678 523T733 396V38Q733 2 696 2Q658 2 658 38V364Q658 420 627 458T542 496Q480
496 441 450T402 339V38Q402 1 366 1Q329 1 329 38V364Q329 420 297 457T212 494Q150 494 112 449T73 339V38Q73 1 37 1Q0 1 0 38Z" />
<glyph unicode="n" glyph-name="n" horiz-adv-x="527" d="M0 36V524Q0 563 36 563Q73 563 73 524V486Q121 573 223 573Q300 573 359 520T418 382V36Q418 0 381 0Q345 0 345 36V350Q345 421 306 460T211 500Q155 500 114 460T73 350V36Q73 0 36 0Q0 0 0 36Z" />
<glyph unicode="o" glyph-name="o" horiz-adv-x="590" d="M242 573Q318 573 374 529T457 418T484 274Q484 155 420 72T242 -11T65 75T0 281T64 487T242 573ZM242 501Q161 501 120 438T78 288Q78 200 120 129T242 58Q322 58 364 120T407 268Q407 322 390 373T334
463T242 501Z" />
<glyph unicode="p" glyph-name="p" horiz-adv-x="576" d="M0 -189V534Q0 573 37 573T74 534V458Q90 505 139 539T239 573Q348 573 410 484T472 277Q472 202 447 138T368 31T239 -12Q185 -12 140 14T74 87V-190Q74 -208 63 -219T36 -230Q0 -230 0 -189ZM246 56Q286
56 316 75T363 127T388 196T397 273Q397 327 383 376T334 462T246 499Q165 499 123 432T80 277Q80 188 122 122T246 56Z" />
<glyph unicode="q" glyph-name="q" horiz-adv-x="581" d="M395 480V534Q395 573 433 573Q469 573 469 534V-197Q469 -230 433 -230Q395 -230 395 -196V87Q331 -13 232 -13Q121 -13 61 71T0 273Q0 348 25 414T104 527T232 573Q281 573 327 549T395 480ZM230 55Q296
55 346 116T396 278Q396 379 348 440T234 501Q160 501 118 433T76 273Q76 184 116 120T230 55Z" />
<glyph unicode="r" glyph-name="r" horiz-adv-x="419" d="M0 36V524Q0 563 36 563Q73 563 73 524V476Q100 524 147 548T248 573Q285 573 303 560T321 527Q321 511 310 500T282 488Q269 488 251 491T214 495Q164 495 119 451T73 350V36Q73 0 36 0Q0 0 0 36Z" />
<glyph unicode="s" glyph-name="s" horiz-adv-x="504" d="M70 108Q138 63 208 63Q256 63 293 84T331 150Q331 205 216 246Q173 262 145 274T83 307T32 352T15 408Q15 488 72 529T216 571Q305 571 371 535Q390 525 390 500Q390 483 381 474T356 465Q344 465 334
471Q289 497 214 497Q164 497 129 478T94 417Q94 407 98 399T111 382T130 368T156 354T183 342T215 329T247 316Q280 302 297 295T340 272T379 242T402 205T413 157Q413 72 352 31T206 -11Q114 -11 21 48Q8 57 8 78Q8 119 41 119Q54 119 70 108Z" />
<glyph unicode="t" glyph-name="t" horiz-adv-x="388" d="M68 553V635Q68 671 104 671Q141 671 141 635V553H229Q268 553 268 519T231 485H141V179Q141 112 154 86T214 59Q258 59 258 26Q258 -9 214 -9Q130 -9 99 37T68 179V486H36Q0 486 0 520Q0 553 31 553H68Z" />
<glyph unicode="u" glyph-name="u" horiz-adv-x="529" d="M74 523L75 242Q75 187 85 149T114 93T154 67T202 60Q264 60 311 119T359 277V527Q359 566 393 566Q429 566 429 527V19Q429 -14 393 -14Q355 -14 355 20V87Q292 -17 193 -17Q111 -17 56 38T1 210V523Q1
560 37 560Q74 560 74 523Z" />
<glyph unicode="v" glyph-name="v" horiz-adv-x="509" d="M80 512L205 130L332 513Q347 556 377 556Q412 556 412 521Q412 512 409 505L246 30Q236 0 202 0Q172 0 162 30L3 504Q0 513 0 521Q0 537 10 546T37 556Q66 556 80 512Z" />
<glyph unicode="w" glyph-name="w" horiz-adv-x="869" d="M79 524L204 125L339 519Q351 554 384 554Q400 554 415 545T435 519L563 129L685 525Q695 556 727 556Q760 556 760 518Q760 508 755 493Q755 482 605 38Q592 1 560 1Q530 1 517 41L383 434L254 38Q242
0 206 0T156 41Q0 504 0 515Q0 555 37 555Q67 555 79 524Z" />
<glyph unicode="x" glyph-name="x" horiz-adv-x="551" d="M17 76L181 299L39 489Q28 505 28 518Q28 533 39 543T66 554Q90 554 105 532L227 357L351 533Q366 555 389 555Q405 555 416 545T428 520T416 490L269 305L435 80Q454 55 454 33Q454 0 422 0Q394 0 372
31L222 239L72 30Q53 2 29 2Q0 2 0 33Q0 53 17 76Z" />
<glyph unicode="y" glyph-name="y" horiz-adv-x="522" d="M100 -169L168 7L5 493Q0 508 0 517Q0 554 35 554Q67 554 78 519L210 111L347 524Q357 555 389 555Q425 555 425 519Q425 504 422 496L175 -194Q164 -227 130 -227T96 -191Q96 -180 100 -169Z" />
<glyph unicode="z" glyph-name="z" horiz-adv-x="528" d="M50 554H355Q400 554 400 524Q400 503 379 473L97 71H379Q416 71 416 36Q416 0 379 0H58Q0 0 0 35Q0 54 18 79L298 481H50Q13 481 13 518Q13 554 50 554Z" />
<glyph unicode="{" glyph-name="braceleft" horiz-adv-x="391" d="M0 351Q0 356 1 360T6 367T12 372T21 377T30 381T40 384T50 388Q104 410 104 544Q104 583 100 628Q100 699 135 724T235 750Q248 750 257 740T267 719Q267 693 224 693Q168 693 168 617Q168 603
170 576T172 537Q172 394 88 348Q171 318 171 167Q171 151 170 123T169 84Q169 46 182 24T234 1Q267 0 267 -25Q267 -54 235 -54Q154 -54 126 -24T97 58Q97 73 99 108T101 162Q101 294 50 318Q47 319 39 320T27 323T17 326T8 331T3 339T0 351Z" />
<glyph unicode="|" glyph-name="bar" horiz-adv-x="197" d="M0 19V774Q0 817 37 817Q73 817 73 774V19Q73 -18 36 -18Q0 -18 0 19Z" />
<glyph unicode="}" glyph-name="braceright" horiz-adv-x="391" d="M267 351Q267 344 265 339T260 332T251 327T241 323T229 321T217 318Q166 294 166 162Q166 143 168 108T170 58Q170 7 142 -23T32 -54Q0 -54 0 -25Q0 0 33 1Q71 2 84 24T98 84Q98 95 97 123T96
167Q96 318 179 348Q95 394 95 537Q95 548 97 575T99 617Q99 693 43 693Q0 693 0 719Q0 730 10 740T32 750Q97 750 132 725T167 628Q163 583 163 544Q163 410 217 388Q219 387 226 385T237 381T246 378T254 373T260 367T265 360T267 351Z" />
<glyph unicode="~" glyph-name="asciitilde" horiz-adv-x="613" d="M33 186Q0 186 0 227Q0 262 46 303T136 344Q181 344 251 306T347 268Q370 268 386 287T417 324T454 343Q489 343 489 299Q489 266 439 226T342 186Q302 186 237 223T138 261Q108 261 81 225Q52
186 33 186Z" />
<glyph unicode="&#xa0;" glyph-name="uni00A0" horiz-adv-x="32767" />
<glyph unicode="&#xa3;" glyph-name="sterling" horiz-adv-x="676" d="M151 348H37Q0 348 0 383Q0 421 37 421H127Q73 498 73 575Q73 662 136 707T289 753Q381 753 454 703T533 567Q533 550 523 538T497 526Q471 526 458 557Q450 614 401 647T292 680Q237 680
199 651T161 569Q161 500 208 421H342Q378 421 378 384Q378 348 342 348H227Q243 303 243 261Q243 164 143 76H515Q552 76 552 38Q552 2 515 2H78Q37 2 37 37Q37 58 70 92Q116 141 139 181T163 272Q163 308 151 348Z" />
<glyph unicode="&#xa4;" glyph-name="currency" horiz-adv-x="801" d="M65 88L163 167Q148 204 148 254Q148 309 169 353L65 437Q35 462 35 486Q35 499 45 506T68 513Q84 513 106 496L210 409Q266 460 344 460Q419 460 476 412L577 496Q597 513 615 513Q628 513
638 506T648 486Q648 461 618 437L521 359Q547 312 547 254Q547 203 529 159L618 88Q648 64 648 39Q648 26 638 19T615 12Q595 12 577 29L491 100Q433 39 347 39Q257 39 199 106L106 29Q88 12 68 12Q55 12 45 19T35 39Q35 62 65 88ZM213 253Q213 181 252 141T347
101T442 140T482 253Q482 321 441 360T345 399T252 362T213 253Z" />
<glyph unicode="&#xa5;" glyph-name="yen" horiz-adv-x="616" d="M73 307H203V348L169 407H50Q6 407 6 443Q6 459 18 470T50 482H126L7 693Q0 706 0 719Q0 734 10 744T33 754Q52 754 64 733L245 429L426 733Q438 754 460 754Q492 754 492 723Q492 710 483 693L358
482H439Q482 482 482 444Q482 407 439 407H313L278 348V307H408Q452 307 452 269Q452 232 408 232H278V35Q278 -7 241 -7Q203 -7 203 35V232H73Q30 232 30 268Q30 284 41 295T73 307Z" />
<glyph unicode="&#xa6;" glyph-name="brokenbar" horiz-adv-x="197" d="M0 480V781Q0 802 10 814T36 827T62 817T73 789V480Q73 443 36 443Q0 443 0 480ZM0 36V360Q0 381 10 393T36 406Q73 406 73 369V36Q73 0 36 0Q0 0 0 36Z" />
<glyph unicode="&#xa7;" glyph-name="section" horiz-adv-x="537" d="M316 340Q316 371 293 393T236 428T161 456T86 487T28 530T5 598Q5 678 63 721T206 764Q289 764 361 725Q380 715 380 690Q380 673 370 663T344 653Q332 653 322 659Q277 685 202 685Q152 685
120 667T87 607Q87 597 91 589T104 573T121 559T146 546T173 535T205 522T237 510Q403 445 403 347Q403 320 391 306T361 292Q343 292 330 306T316 340ZM92 366Q92 335 115 313T172 278T247 250T322 219T380 176T403 108Q403 28 345 -15T202 -58Q119 -58 47 -19Q28
-9 28 16Q28 33 38 43T64 53Q76 53 86 47Q131 21 206 21Q256 21 288 39T321 99Q321 109 317 117T304 133T287 147T262 160T235 171T203 184T171 196Q5 261 5 359Q5 386 17 400T47 414Q65 414 78 400T92 366Z" />
<glyph unicode="&#xa8;" glyph-name="dieresis" horiz-adv-x="410" d="M0 629T0 650T14 685T50 700T85 686T100 650T86 615T50 600T15 614ZM200 629T200 650T214 685T250 700T285 686T300 650T286 615T250 600T215 614Z" />
<glyph unicode="&#xa9;" glyph-name="copyright" horiz-adv-x="882" d="M378 741Q544 741 649 634T754 362Q754 198 648 93T376 -13T105 93T0 364T105 635T378 741ZM246 55T380 55T597 142T681 363Q681 498 597 587T378 676T161 588T77 366T161 144ZM384 536Q317
536 276 489T235 362Q235 297 276 246T377 195Q414 195 436 204Q469 215 472 215Q502 215 502 186Q502 169 486 156Q454 130 385 130Q289 130 229 199T169 367Q169 468 233 535T387 603Q432 603 482 581Q510 567 510 549Q510 535 502 525T481 515Q477 515 473 517Q429
536 384 536Z" />
<glyph unicode="&#xab;" glyph-name="guillemotleft" horiz-adv-x="456" d="M325 429L226 274Q234 263 330 98Q332 94 332 91Q332 81 319 73T291 64Q274 64 267 76L167 239Q156 259 156 273T167 307L267 470Q275 481 292 481Q332 481 332 450Q332 439 325 429ZM167
429L70 274Q103 219 173 98Q175 92 175 91Q175 81 162 73T134 64Q118 64 110 76L13 239Q0 261 0 273Q0 287 13 307L110 470Q118 482 133 482T160 471T172 446Q172 437 167 429Z" />
<glyph unicode="&#xac;" glyph-name="logicalnot" horiz-adv-x="672" d="M472 120V239H43Q0 239 0 276Q0 292 12 303T43 315H506Q548 315 548 268V120Q548 77 512 77Q496 77 484 88T472 120Z" />
<glyph unicode="&#xad;" glyph-name="uni00AD" horiz-adv-x="32767" />
<glyph unicode="&#xae;" glyph-name="registered" horiz-adv-x="881" d="M212 750T377 750T647 643T753 371Q753 206 648 101T377 -5Q212 -5 106 102T0 374T106 644ZM265 600H412Q474 600 515 561Q555 524 555 472Q555 383 444 353Q476 306 503 264Q550 190 550
178Q550 148 510 148Q485 148 470 179L371 353H290V179Q290 148 256 148Q225 148 225 179V559Q225 588 238 595Q248 600 265 600ZM404 543H290V410H404Q440 410 461 428T482 475T461 523T404 543ZM381 61Q516 61 598 146T680 370Q680 505 596 593T377 682Q243 682
158 594T73 373T160 151T381 61Z" />
<glyph unicode="0;" glyph-name="degree" horiz-adv-x="320" d="M99 801Q143 801 171 772T199 700Q199 658 171 629T99 600T28 629T0 701Q0 742 26 771T99 801ZM100 650Q120 650 134 665T149 699Q149 720 136 735T100 750Q77 750 64 736T50 700T63 665T100 650Z" />
<glyph unicode="1;" glyph-name="plusminus" horiz-adv-x="625" d="M70 400H252V559Q252 598 290 598Q308 598 320 587T333 559V400H515Q538 400 551 389T565 359Q565 321 515 321H333V152Q333 135 321 125T291 114Q252 114 252 152V321H70Q29 321 29 362Q29
400 70 400ZM75 76H522Q565 76 565 38Q565 1 522 1H75Q31 1 31 37Q31 53 43 64T75 76Z" />
<glyph unicode="2;" glyph-name="twosuperior" horiz-adv-x="337" d="M-1 639Q-1 685 31 713T106 742Q147 742 178 716T210 648Q210 599 175 553L57 398H197Q216 398 216 379T197 360H31Q4 360 4 378Q4 388 11 396L147 581Q169 611 169 644Q169 671 150 687T104
703T59 686T40 636Q40 628 35 620T20 612Q10 612 5 620T-1 639Z" />
<glyph unicode="3;" glyph-name="threesuperior" horiz-adv-x="312" d="M94 743Q139 743 166 715T193 645Q193 598 152 562Q208 526 208 464Q208 420 177 387T95 354Q38 354 6 399Q-6 416 -6 434Q-6 454 11 454Q25 454 29 441Q50 394 95 394Q125 394 146 413T167
465Q167 491 152 512T109 538Q108 538 95 538T80 539Q57 539 57 557T79 575Q80 575 93 575T108 576Q129 580 140 600T152 644Q152 672 136 689T92 706Q70 706 55 692T39 656Q39 631 20 631Q-1 631 -1 657Q-1 690 26 716T94 743Z" />
<glyph unicode="5;" glyph-name="mu" horiz-adv-x="528" d="M-1 -199V518Q-1 555 37 555Q74 555 74 518V189Q74 136 109 103T196 69Q262 69 303 115T344 231V518Q344 555 382 555Q419 555 419 518V43Q419 0 382 0Q347 0 345 38Q344 51 344 73Q287 -8 187 -8Q155
-8 124 6T74 46V-199Q74 -236 36 -236Q-1 -236 -1 -199Z" />
<glyph unicode="6;" glyph-name="paragraph" horiz-adv-x="575" d="M194 34V398Q105 398 53 443T0 560Q0 654 61 704T245 754H450Q464 753 473 744T483 721T474 698T450 688H402V34Q402 20 392 10T368 0T345 10T335 34V688H260V34Q260 20 250 10T226 0T203
10T194 34Z" />
<glyph unicode="7;" glyph-name="middot" horiz-adv-x="229" d="M0 329T0 350T14 385T50 400T85 386T100 350T86 315T50 300T15 314Z" />
<glyph unicode="b;" glyph-name="guillemotright" horiz-adv-x="458" d="M159 96L264 274L164 429Q155 444 155 456Q155 485 190 485Q212 485 221 470L322 307Q334 288 334 273T322 239L221 76Q215 65 192 65Q155 65 155 86Q155 92 159 96ZM3 96L107 274L3
449Q0 454 0 458Q0 468 12 476T39 485Q58 485 67 470L164 307Q177 287 177 273Q177 261 164 239L67 76Q61 65 40 65Q0 65 0 87Q0 92 3 96Z" />
<glyph unicode="d;" glyph-name="onehalf" horiz-adv-x="948" d="M193 35L466 740Q475 763 500 763Q528 763 528 735Q528 727 525 718L249 14Q242 -6 222 -6Q209 -6 200 2T191 23Q191 31 193 35ZM108 222V681L34 660Q31 659 25 659Q13 659 6 665T-2 683Q-2
708 26 715Q135 746 141 746Q159 746 165 731Q169 723 169 693V222Q169 208 161 199T139 190Q125 190 117 199T108 222ZM523 418Q523 487 572 530T685 573Q746 573 793 533T841 432Q841 360 787 289L610 57H821Q849 57 849 29Q849 0 820 0H572Q531 0 531 27Q531
39 542 55L746 332Q779 378 779 427Q779 466 750 490T682 515Q642 515 614 489T585 415Q585 402 577 391T555 379Q540 379 532 391T523 418Z" />
</font>
</defs>
</svg>
